HIERARCHY
ROOT Hips
{
 OFFSET 0.000000 0.000000 0.000000
 CHANNELS 6 Xposition Yposition Zposition Yrotation Xrotation Zrotation
 JOINT Chest
 {
  OFFSET 0.000000 9.585900 0.002600
  CHANNELS 3 Yrotation Xrotation Zrotation
  JOINT Chest2
  {
   OFFSET 0.000000 9.601200 -0.005300
   CHANNELS 3 Yrotation Xrotation Zrotation
   JOINT Chest3
   {
    OFFSET 0.000000 9.561800 0.000000
    CHANNELS 3 Yrotation Xrotation Zrotation
    JOINT Chest4
    {
     OFFSET 0.000000 9.552100 0.000000
     CHANNELS 3 Yrotation Xrotation Zrotation
     JOINT Neck
     {
      OFFSET 0.000000 14.453000 0.000000
      CHANNELS 3 Yrotation Xrotation Zrotation
      JOINT Head
      {
       OFFSET 0.000000 8.936500 -0.011300
       CHANNELS 3 Yrotation Xrotation Zrotation
       End Site
       {
        OFFSET 0.000000 17.073600 -0.006000
       }
      }
     }
     JOINT RightCollar
     {
      OFFSET -2.921100 9.558500 0.000000
      CHANNELS 3 Yrotation Xrotation Zrotation
      JOINT RightShoulder
      {
       OFFSET -13.519700 0.000000 0.000000
       CHANNELS 3 Yrotation Xrotation Zrotation
       JOINT RightElbow
       {
        OFFSET 0.000000 -29.696600 0.000000
        CHANNELS 3 Yrotation Xrotation Zrotation
        JOINT RightWrist
        {
         OFFSET 0.000000 -24.004700 0.000000
         CHANNELS 3 Yrotation Xrotation Zrotation
         End Site
         {
          OFFSET 0.000000 -17.728500 0.000000
         }
        }
       }
      }
     }
     JOINT LeftCollar
     {
      OFFSET 2.921100 9.558500 0.000000
      CHANNELS 3 Yrotation Xrotation Zrotation
      JOINT LeftShoulder
      {
       OFFSET 13.519700 0.000000 0.000000
       CHANNELS 3 Yrotation Xrotation Zrotation
       JOINT LeftElbow
       {
        OFFSET 0.000000 -29.696600 0.000000
        CHANNELS 3 Yrotation Xrotation Zrotation
        JOINT LeftWrist
        {
         OFFSET 0.000000 -24.004700 0.000000
         CHANNELS 3 Yrotation Xrotation Zrotation
         End Site
         {
          OFFSET 0.000000 -17.728500 0.000000
         }
        }
       }
      }
     }
    }
   }
  }
 }
 JOINT RightHip
 {
  OFFSET -7.771700 -0.012900 -0.001300
  CHANNELS 3 Yrotation Xrotation Zrotation
  JOINT RightKnee
  {
   OFFSET 0.000000 -40.869800 0.001200
   CHANNELS 3 Yrotation Xrotation Zrotation
   JOINT RightAnkle
   {
    OFFSET 0.000000 -39.717900 0.002100
    CHANNELS 3 Yrotation Xrotation Zrotation
    JOINT RightToe
    {
     OFFSET 0.000000 -4.965400 11.033500
     CHANNELS 3 Yrotation Xrotation Zrotation
     End Site
     {
      OFFSET 0.000000 -1.423100 5.872300
     }
    }
   }
  }
 }
 JOINT LeftHip
 {
  OFFSET 7.771700 -0.012900 -0.001300
  CHANNELS 3 Yrotation Xrotation Zrotation
  JOINT LeftKnee
  {
   OFFSET 0.000000 -40.869800 0.001200
   CHANNELS 3 Yrotation Xrotation Zrotation
   JOINT LeftAnkle
   {
    OFFSET 0.000000 -39.717900 0.002100
    CHANNELS 3 Yrotation Xrotation Zrotation
    JOINT LeftToe
    {
     OFFSET 0.000000 -4.965400 11.033500
     CHANNELS 3 Yrotation Xrotation Zrotation
     End Site
     {
      OFFSET 0.000000 -1.423100 5.872300
     }
    }
   }
  }
 }
}
MOTION
Frames: 16
Frame Time: 0.008333
0.000000 85.388000 0.000000 0.000000 -5.767877 0.000000 0.000000 11.653817 0.000000 0.000000 -5.885947 0.000000 0.000000 -0.000000 0.000000 0.000000 -0.000000 0.000000 0.000000 12.528835 0.000000 0.000000 0.711642 0.000000 0.000000 -0.000000 0.000000 0.000000 0.000000 -90.000000 0.000000 -2.309062 0.000000 0.000000 2.309062 0.000000 0.000000 -0.000000 0.000000 0.000000 -0.000000 90.000000 0.000000 -2.309062 0.000000 0.000000 2.309062 0.000000 0.000000 8.520406 0.000000 0.000000 1.905762 0.000000 -0.000000 -4.658285 0.000000 0.000000 -0.000000 0.000000 0.000000 8.520406 0.000000 0.000000 1.905762 0.000000 -0.000000 -4.658285 0.000000 0.000000 -0.000000 0.000000
-171.254464 49.381533 15.168142 174.977447 -31.395601 -4.510226 0.719690 18.629993 2.236892 0.058658 2.148075 0.186306 0.100780 3.550388 0.309278 0.630148 16.191974 1.495379 4.517071 17.182110 -2.222408 9.053471 -3.554531 -5.604629 -1.157689 -2.764816 -1.440202 5.086124 -10.014972 -14.183534 -36.879938 -50.961530 86.493246 3.598384 4.461750 -16.969422 -0.668073 -2.708080 2.040055 -6.485902 -4.131346 14.183643 63.988877 -63.293617 -102.570164 6.251245 9.302564 13.570513 -6.121500 -52.310731 -2.656040 -154.951010 81.208842 -141.422834 -30.309521 -3.914509 -3.705704 -0.114459 -14.028583 0.625598 -14.657209 -55.013225 22.470097 -73.866135 64.751704 -79.290175 30.947675 7.923037 16.122295 -0.001647 -0.545286 0.003213
-171.257855 49.381714 15.168774 174.982126 -31.395304 -4.504544 0.716377 18.634822 2.228870 0.058768 2.148786 0.186478 0.100966 3.551550 0.309555 0.628119 16.187291 1.495885 4.489775 17.201933 -2.214127 9.031046 -3.563561 -5.601886 -1.163674 -2.754439 -1.438003 5.088434 -10.022743 -14.188498 -36.882989 -50.962287 86.498847 3.600596 4.462473 -16.957546 -0.670443 -2.705844 2.039137 -6.487250 -4.133581 14.186149 64.005264 -63.301967 -102.584389 6.259096 9.307229 13.579484 -6.125823 -52.314202 -2.665385 -154.970291 81.208009 -141.449383 -30.305554 -3.912896 -3.703499 -0.119735 -14.029980 0.624097 -14.638065 -55.017282 22.447378 -73.858202 64.753374 -79.283445 30.951907 7.922465 16.134719 -0.007370 -0.545736 0.000259
-171.260647 49.381517 15.170193 174.988253 -31.390698 -4.506281 0.712408 18.634167 2.227251 0.058734 2.149183 0.186539 0.100995 3.553448 0.309851 0.632736 16.191731 1.497804 4.466508 17.200472 -2.210655 8.995119 -3.562821 -5.590180 -1.170666 -2.758850 -1.436444 5.088126 -10.025542 -14.191438 -36.883313 -50.963206 86.509351 3.596992 4.461131 -16.955567 -0.676049 -2.711642 2.040309 -6.491333 -4.135809 14.188160 64.020554 -63.308563 -102.595666 6.256469 9.317492 13.574627 -6.131821 -52.321326 -2.676483 -155.091260 81.217111 -141.566151 -30.313321 -3.906367 -3.702536 -0.124449 -14.038101 0.617866 -14.623700 -55.027185 22.437177 -73.863322 64.742754 -79.283900 30.953528 7.925062 16.140249 -0.002971 -0.546031 0.001749
-171.262944 49.381231 15.171715 174.988457 -31.386397 -4.510197 0.713647 18.630972 2.231009 0.058686 2.149263 0.186534 0.101594 3.556771 0.310046 0.633807 16.199429 1.500971 4.449788 17.194061 -2.210541 8.952307 -3.561271 -5.575467 -1.174122 -2.765838 -1.437392 5.090129 -10.026249 -14.198986 -36.898874 -50.948649 86.535517 3.606125 4.465969 -16.957377 -0.676862 -2.720969 2.038914 -6.517591 -4.126556 14.203315 64.074234 -63.315710 -102.629168 6.259420 9.322293 13.576638 -6.137565 -52.327489 -2.677674 -155.201931 81.229648 -141.672622 -30.319677 -3.900532 -3.705757 -0.126207 -14.043046 0.614467 -14.623436 -55.033941 22.440986 -73.870401 64.740347 -79.287219 30.947326 7.923666 16.136746 0.002506 -0.543553 0.005001
-171.266335 49.380520 15.173383 174.991806 -31.379564 -4.510900 0.710319 18.627843 2.229237 0.058678 2.149860 0.186962 0.102508 3.555517 0.310394 0.636874 16.199704 1.503927 4.440532 17.192842 -2.211247 8.912748 -3.558839 -5.560488 -1.178889 -2.766553 -1.438438 5.093253 -10.018193 -14.204857 -36.917414 -50.951503 86.552444 3.605781 4.470773 -16.949915 -0.679963 -2.720251 2.038006 -6.534344 -4.126417 14.213925 64.102190 -63.323005 -102.648032 6.254852 9.324882 13.581943 -6.151288 -52.334715 -2.681582 -155.294102 81.239370 -141.767729 -30.306429 -3.900560 -3.715706 -0.136819 -14.042650 0.616333 -14.619193 -55.045019 22.435803 -73.870093 64.735772 -79.284196 30.950644 7.929834 16.139325 0.001833 -0.547458 0.005916
-171.269566 49.379897 15.174591 174.990406 -31.375751 -4.510731 0.711513 18.630108 2.226188 0.059890 2.146703 0.189746 0.102153 3.553264 0.311267 0.640597 16.200938 1.506239 4.420849 17.195650 -2.206908 8.912758 -3.561375 -5.565349 -1.182712 -2.766811 -1.438472 5.094599 -10.017079 -14.206772 -36.922768 -50.953311 86.555685 3.608661 4.474896 -16.940233 -0.686647 -2.719029 2.038988 -6.535433 -4.129059 14.215000 64.109369 -63.330797 -102.654662 6.255463 9.325644 13.584862 -6.153825 -52.339366 -2.682314 -155.335107 81.246145 -141.808116 -30.303670 -3.904092 -3.728346 -0.136704 -14.037295 0.623083 -14.611044 -55.053725 22.430610 -73.871329 64.738079 -79.286468 30.956539 7.931540 16.150531 -0.004545 -0.552395 0.002318
-171.271956 49.379507 15.175301 174.987408 -31.375520 -4.514710 0.715439 18.631752 2.230582 0.060989 2.147668 0.188758 0.102871 3.552929 0.311949 0.644194 16.199444 1.509721 4.374601 17.201268 -2.196891 8.888799 -3.561163 -5.561961 -1.186878 -2.765855 -1.436050 5.096461 -10.015013 -14.210845 -36.928378 -50.957458 86.554046 3.617036 4.476983 -16.927353 -0.697329 -2.721373 2.028424 -6.544068 -4.126283 14.241705 64.133219 -63.330117 -102.668642 6.223620 9.338726 13.582506 -6.158148 -52.339825 -2.675421 -155.368639 81.250163 -141.838765 -30.302570 -3.910981 -3.738385 -0.136429 -14.030587 0.628446 -14.607191 -55.058474 22.431715 -73.885770 64.736274 -79.298860 30.963553 7.928071 16.156190 -0.012100 -0.555532 -0.000824
-171.275358 49.379454 15.175068 174.978170 -31.380748 -4.508629 0.725504 18.636152 2.229608 0.057072 2.150230 0.188443 0.107369 3.550686 0.312006 0.643760 16.199212 1.511117 4.361728 17.201935 -2.194248 8.832827 -3.556072 -5.537657 -1.182341 -2.760150 -1.435870 5.096421 -10.012574 -14.213881 -36.947181 -50.970595 86.560709 3.623658 4.481884 -16.916613 -0.700646 -2.722012 2.026980 -6.561182 -4.132783 14.274933 64.159949 -63.336290 -102.686036 6.195134 9.348908 13.578190 -6.144887 -52.337764 -2.678633 -155.420710 81.257183 -141.893313 -30.310542 -3.911542 -3.739548 -0.126809 -14.025124 0.628399 -14.587795 -55.059258 22.420786 -73.903579 64.732001 -79.322479 30.978851 7.919251 16.171592 -0.022648 -0.557941 -0.005998
-171.277545 49.378900 15.176034 174.970437 -31.378294 -4.510678 0.738567 18.630171 2.237067 0.060074 2.149634 0.188803 0.104885 3.547764 0.311947 0.643174 16.204677 1.512794 4.347361 17.201977 -2.191451 8.704012 -3.567689 -5.491321 -1.185895 -2.752320 -1.432856 5.100436 -10.016496 -14.223564 -36.960741 -50.982830 86.563268 3.633644 4.485394 -16.895320 -0.700142 -2.717755 2.021297 -6.569454 -4.137619 14.284932 64.262348 -63.470331 -102.761045 6.249456 9.382664 13.543304 -6.141014 -52.342084 -2.671373 -155.397146 81.260356 -141.867853 -30.312625 -3.907381 -3.744007 -0.122301 -14.023059 0.630037 -14.587859 -55.062835 22.429392 -73.909481 64.731236 -79.328838 30.978866 7.915443 16.175338 -0.023418 -0.556395 -0.007619
-171.279862 49.378956 15.176343 174.973254 -31.379714 -4.516514 0.741999 18.625578 2.240922 0.057655 2.154575 0.191136 0.107712 3.535592 0.309906 0.646355 16.208142 1.515286 4.294855 17.190768 -2.184640 8.638758 -3.560856 -5.471388 -1.190315 -2.740005 -1.437799 5.086909 -10.020801 -14.224156 -36.975757 -51.016961 86.568488 3.633367 4.499751 -16.850517 -0.710056 -2.704052 2.014675 -6.573542 -4.155655 14.311163 64.384112 -63.609652 -102.823824 6.271976 9.436890 13.453914 -6.139806 -52.340728 -2.669481 -155.396698 81.262335 -141.864184 -30.316410 -3.906949 -3.744356 -0.120498 -14.020144 0.630942 -14.593816 -55.061672 22.433280 -73.915550 64.732780 -79.333454 30.971606 7.911678 16.174911 -0.018095 -0.552759 -0.008448
-171.281595 49.378707 15.177975 174.970915 -31.373384 -4.523332 0.750069 18.608515 2.247486 0.056239 2.157113 0.191852 0.107447 3.534735 0.310893 0.655984 16.166039 1.518181 4.277175 17.236649 -2.177940 8.598650 -3.563524 -5.460135 -1.206789 -2.697425 -1.439588 5.054511 -10.019622 -14.235638 -36.989244 -51.049530 86.585096 3.648120 4.525402 -16.776564 -0.721735 -2.655517 2.001100 -6.552081 -4.182066 14.384212 64.536472 -63.746876 -102.917052 6.252749 9.512755 13.294474 -6.120781 -52.350615 -2.669283 -155.369435 81.257046 -141.827211 -30.316298 -3.900234 -3.731763 -0.117527 -14.019843 0.622420 -14.603128 -55.067858 22.446125 -73.920428 64.734100 -79.334350 30.964838 7.909775 16.169725 -0.012881 -0.549086 -0.005795
-171.283735 49.378811 15.179951 174.973036 -31.365088 -4.529847 0.752652 18.586323 2.252220 0.061980 2.135351 0.189031 0.101401 3.559167 0.314132 0.666936 16.123226 1.524171 4.235915 17.262571 -2.174998 8.486880 -3.564328 -5.433466 -1.223384 -2.649323 -1.442448 5.008461 -10.014968 -14.241741 -37.014719 -51.126173 86.587222 3.663351 4.569199 -16.652195 -0.746465 -2.617968 1.966672 -6.506141 -4.171975 14.461772 64.788896 -63.987239 -103.066777 6.204595 9.616495 13.039540 -6.112031 -52.361554 -2.665560 -155.344702 81.256979 -141.800570 -30.317075 -3.889308 -3.720717 -0.110195 -14.021183 0.614868 -14.613958 -55.074499 22.453274 -73.917059 64.733600 -79.325031 30.961382 7.910466 16.165323 -0.009240 -0.545272 -0.005275
-171.286864 49.378953 15.182919 174.966410 -31.351128 -4.526198 0.758515 18.560384 2.251464 0.063687 2.126079 0.189178 0.103505 3.552312 0.314804 0.673806 16.100430 1.530780 4.191226 17.276858 -2.173688 8.355584 -3.569163 -5.407130 -1.238603 -2.606580 -1.448383 4.943602 -9.999277 -14.234858 -37.040725 -51.246337 86.581215 3.702180 4.625815 -16.482678 -0.811607 -2.634652 1.869742 -6.394382 -4.096796 14.600677 65.160456 -64.341802 -103.287434 6.122239 9.754491 12.665161 -6.090192 -52.379957 -2.663120 -155.323931 81.262267 -141.792164 -30.310944 -3.867956 -3.692765 -0.121680 -14.021081 0.600373 -14.617913 -55.085899 22.449636 -73.902930 64.741892 -79.308870 30.972545 7.906109 16.168923 -0.021980 -0.541560 -0.010213
-171.288928 49.380058 15.186078 174.971683 -31.337902 -4.535174 0.755297 18.543472 2.257686 0.069422 2.110169 0.188633 0.109708 3.510455 0.315455 0.668687 16.136301 1.535864 4.099580 17.209077 -2.174177 8.282283 -3.524388 -5.386925 -1.243280 -2.643580 -1.449552 4.845687 -9.920523 -14.212488 -37.071235 -51.435494 86.560748 3.762684 4.703259 -16.247329 -0.874158 -2.679626 1.776319 -6.237177 -4.013407 14.731686 65.681934 -64.858361 -103.599646 5.995077 9.929975 12.161526 -6.089851 -52.391951 -2.646587 -155.281086 81.269210 -141.755135 -30.317964 -3.859041 -3.680419 -0.116477 -14.015038 0.595706 -14.643049 -55.093075 22.461009 -73.883612 64.741302 -79.281228 30.974911 7.914960 16.157964 -0.017985 -0.539648 -0.008769
-171.291580 49.382059 15.189323 174.980160 -31.325459 -4.542610 0.751489 18.518885 2.260689 0.076196 2.102920 0.187778 0.104755 3.515601 0.317485 0.672286 16.126487 1.540111 4.067939 17.208386 -2.173894 8.120848 -3.563276 -5.348576 -1.255135 -2.641566 -1.447116 4.723321 -9.876160 -14.178983 -37.107709 -51.708993 86.513413 3.855212 4.799665 -15.939878 -0.937188 -2.729560 1.686371 -6.030970 -3.924223 14.845153 66.403611 -65.584201 -104.048204 5.808385 10.134574 11.543418 -6.090367 -52.402817 -2.630609 -155.219391 81.277050 -141.702734 -30.328915 -3.848407 -3.669375 -0.106774 -14.008749 0.593314 -14.665917 -55.098661 22.463091 -73.858873 64.743274 -79.245768 30.975678 7.925139 16.145592 -0.017659 -0.539177 -0.007858
